<?xml version="1.0" encoding="UTF-8" standalone="no"?>
<!DOCTYPE svg PUBLIC "-//W3C//DTD SVG 1.1//EN"
 "http://www.w3.org/Graphics/SVG/1.1/DTD/svg11.dtd">
<!-- Generated by graphviz version 2.43.0 (0)
 -->
<!-- Title: TemplateHierarchy Pages: 1 -->
<svg width="1181pt" height="620pt"
 viewBox="0.00 0.00 1181.00 620.00" xmlns="http://www.w3.org/2000/svg" xmlns:xlink="http://www.w3.org/1999/xlink">
<g id="graph0" class="graph" transform="scale(1 1) rotate(0) translate(4 616)">
<title>TemplateHierarchy</title>
<polygon fill="white" stroke="transparent" points="-4,4 -4,-616 1177,-616 1177,4 -4,4"/>
<!-- base_directories_yaml -->
<g id="node1" class="node">
<title>base_directories_yaml</title>
<path fill="lightblue" stroke="black" d="M876.5,-36C876.5,-36 727.5,-36 727.5,-36 721.5,-36 715.5,-30 715.5,-24 715.5,-24 715.5,-12 715.5,-12 715.5,-6 721.5,0 727.5,0 727.5,0 876.5,0 876.5,0 882.5,0 888.5,-6 888.5,-12 888.5,-12 888.5,-24 888.5,-24 888.5,-30 882.5,-36 876.5,-36"/>
<text text-anchor="middle" x="802" y="-14.3" font-family="Times,serif" font-size="14.00">base_directories.yaml</text>
</g>
<!-- callbacks_base_callbacks_yaml -->
<g id="node2" class="node">
<title>callbacks_base_callbacks_yaml</title>
<path fill="lightgray" stroke="black" d="M538,-108C538,-108 332,-108 332,-108 326,-108 320,-102 320,-96 320,-96 320,-84 320,-84 320,-78 326,-72 332,-72 332,-72 538,-72 538,-72 544,-72 550,-78 550,-84 550,-84 550,-96 550,-96 550,-102 544,-108 538,-108"/>
<text text-anchor="middle" x="435" y="-86.3" font-family="Times,serif" font-size="14.00">callbacks/base_callbacks.yaml</text>
</g>
<!-- inc_formatting_jinja -->
<g id="node10" class="node">
<title>inc_formatting_jinja</title>
<path fill="white" stroke="black" d="M685,-36C685,-36 555,-36 555,-36 549,-36 543,-30 543,-24 543,-24 543,-12 543,-12 543,-6 549,0 555,0 555,0 685,0 685,0 691,0 697,-6 697,-12 697,-12 697,-24 697,-24 697,-30 691,-36 685,-36"/>
<text text-anchor="middle" x="620" y="-14.3" font-family="Times,serif" font-size="14.00">inc/formatting.jinja</text>
</g>
<!-- callbacks_base_callbacks_yaml&#45;&gt;inc_formatting_jinja -->
<g id="edge27" class="edge">
<title>callbacks_base_callbacks_yaml&#45;&gt;inc_formatting_jinja</title>
<path fill="none" stroke="#999999" d="M480.26,-71.88C506,-62.14 538.41,-49.87 565.54,-39.61"/>
<polygon fill="#999999" stroke="#999999" points="566.78,-42.88 574.89,-36.07 564.3,-36.33 566.78,-42.88"/>
</g>
<!-- callbacks_loggers_yaml -->
<g id="node3" class="node">
<title>callbacks_loggers_yaml</title>
<path fill="lightgray" stroke="black" d="M512.5,-180C512.5,-180 357.5,-180 357.5,-180 351.5,-180 345.5,-174 345.5,-168 345.5,-168 345.5,-156 345.5,-156 345.5,-150 351.5,-144 357.5,-144 357.5,-144 512.5,-144 512.5,-144 518.5,-144 524.5,-150 524.5,-156 524.5,-156 524.5,-168 524.5,-168 524.5,-174 518.5,-180 512.5,-180"/>
<text text-anchor="middle" x="435" y="-158.3" font-family="Times,serif" font-size="14.00">callbacks/loggers.yaml</text>
</g>
<!-- callbacks_loggers_yaml&#45;&gt;callbacks_base_callbacks_yaml -->
<g id="edge26" class="edge">
<title>callbacks_loggers_yaml&#45;&gt;callbacks_base_callbacks_yaml</title>
<path fill="none" stroke="#999999" d="M435,-143.7C435,-135.98 435,-126.71 435,-118.11"/>
<polygon fill="#999999" stroke="#999999" points="438.5,-118.1 435,-108.1 431.5,-118.1 438.5,-118.1"/>
</g>
<!-- config_type_yaml -->
<g id="node4" class="node">
<title>config_type_yaml</title>
<path fill="lightblue" stroke="black" d="M816.5,-108C816.5,-108 703.5,-108 703.5,-108 697.5,-108 691.5,-102 691.5,-96 691.5,-96 691.5,-84 691.5,-84 691.5,-78 697.5,-72 703.5,-72 703.5,-72 816.5,-72 816.5,-72 822.5,-72 828.5,-78 828.5,-84 828.5,-84 828.5,-96 828.5,-96 828.5,-102 822.5,-108 816.5,-108"/>
<text text-anchor="middle" x="760" y="-86.3" font-family="Times,serif" font-size="14.00">config_type.yaml</text>
</g>
<!-- config_type_yaml&#45;&gt;base_directories_yaml -->
<g id="edge21" class="edge">
<title>config_type_yaml&#45;&gt;base_directories_yaml</title>
<path fill="none" stroke="#999999" d="M770.38,-71.7C775.26,-63.56 781.19,-53.69 786.58,-44.7"/>
<polygon fill="#999999" stroke="#999999" points="789.59,-46.48 791.74,-36.1 783.59,-42.88 789.59,-46.48"/>
</g>
<!-- config_type_yaml&#45;&gt;inc_formatting_jinja -->
<g id="edge22" class="edge">
<title>config_type_yaml&#45;&gt;inc_formatting_jinja</title>
<path fill="none" stroke="#999999" d="M725.75,-71.88C706.94,-62.47 683.42,-50.71 663.33,-40.67"/>
<polygon fill="#999999" stroke="#999999" points="664.89,-37.53 654.38,-36.19 661.76,-43.79 664.89,-37.53"/>
</g>
<!-- configs_pp_accum_10_yaml -->
<g id="node5" class="node">
<title>configs_pp_accum_10_yaml</title>
<path fill="lightblue" stroke="black" d="M811,-612C811,-612 629,-612 629,-612 623,-612 617,-606 617,-600 617,-600 617,-588 617,-588 617,-582 623,-576 629,-576 629,-576 811,-576 811,-576 817,-576 823,-582 823,-588 823,-588 823,-600 823,-600 823,-606 817,-612 811,-612"/>
<text text-anchor="middle" x="720" y="-590.3" font-family="Times,serif" font-size="14.00">configs/pp_accum_10.yaml</text>
</g>
<!-- configs_pp_control_yaml -->
<g id="node6" class="node">
<title>configs_pp_control_yaml</title>
<path fill="lightblue" stroke="black" d="M800.5,-540C800.5,-540 639.5,-540 639.5,-540 633.5,-540 627.5,-534 627.5,-528 627.5,-528 627.5,-516 627.5,-516 627.5,-510 633.5,-504 639.5,-504 639.5,-504 800.5,-504 800.5,-504 806.5,-504 812.5,-510 812.5,-516 812.5,-516 812.5,-528 812.5,-528 812.5,-534 806.5,-540 800.5,-540"/>
<text text-anchor="middle" x="720" y="-518.3" font-family="Times,serif" font-size="14.00">configs/pp_control.yaml</text>
</g>
<!-- configs_pp_accum_10_yaml&#45;&gt;configs_pp_control_yaml -->
<g id="edge1" class="edge">
<title>configs_pp_accum_10_yaml&#45;&gt;configs_pp_control_yaml</title>
<path fill="none" stroke="#999999" d="M720,-575.7C720,-567.98 720,-558.71 720,-550.11"/>
<polygon fill="#999999" stroke="#999999" points="723.5,-550.1 720,-540.1 716.5,-550.1 723.5,-550.1"/>
</g>
<!-- experiment_callbacks -->
<g id="node8" class="node">
<title>experiment_callbacks</title>
<path fill="lightgray" stroke="black" d="M598,-540C598,-540 454,-540 454,-540 448,-540 442,-534 442,-528 442,-528 442,-516 442,-516 442,-510 448,-504 454,-504 454,-504 598,-504 598,-504 604,-504 610,-510 610,-516 610,-516 610,-528 610,-528 610,-534 604,-540 598,-540"/>
<text text-anchor="middle" x="526" y="-518.3" font-family="Times,serif" font-size="14.00">experiment.callbacks</text>
</g>
<!-- configs_pp_accum_10_yaml&#45;&gt;experiment_callbacks -->
<g id="edge2" class="edge">
<title>configs_pp_accum_10_yaml&#45;&gt;experiment_callbacks</title>
<path fill="none" stroke="#999999" d="M672.54,-575.88C645.43,-566.09 611.26,-553.77 582.74,-543.47"/>
<polygon fill="#999999" stroke="#999999" points="583.9,-540.17 573.3,-540.07 581.52,-546.75 583.9,-540.17"/>
</g>
<!-- experiment_trainer_config -->
<g id="node9" class="node">
<title>experiment_trainer_config</title>
<path fill="lightgreen" stroke="black" d="M1021,-540C1021,-540 843,-540 843,-540 837,-540 831,-534 831,-528 831,-528 831,-516 831,-516 831,-510 837,-504 843,-504 843,-504 1021,-504 1021,-504 1027,-504 1033,-510 1033,-516 1033,-516 1033,-528 1033,-528 1033,-534 1027,-540 1021,-540"/>
<text text-anchor="middle" x="932" y="-518.3" font-family="Times,serif" font-size="14.00">experiment.trainer_config</text>
</g>
<!-- configs_pp_accum_10_yaml&#45;&gt;experiment_trainer_config -->
<g id="edge3" class="edge">
<title>configs_pp_accum_10_yaml&#45;&gt;experiment_trainer_config</title>
<path fill="none" stroke="#999999" d="M771.59,-575.97C801.47,-566.1 839.26,-553.62 870.66,-543.25"/>
<polygon fill="#999999" stroke="#999999" points="871.78,-546.57 880.18,-540.11 869.59,-539.92 871.78,-546.57"/>
</g>
<!-- pipeline_callbacks -->
<g id="node12" class="node">
<title>pipeline_callbacks</title>
<path fill="lightgray" stroke="black" d="M585.5,-468C585.5,-468 466.5,-468 466.5,-468 460.5,-468 454.5,-462 454.5,-456 454.5,-456 454.5,-444 454.5,-444 454.5,-438 460.5,-432 466.5,-432 466.5,-432 585.5,-432 585.5,-432 591.5,-432 597.5,-438 597.5,-444 597.5,-444 597.5,-456 597.5,-456 597.5,-462 591.5,-468 585.5,-468"/>
<text text-anchor="middle" x="526" y="-446.3" font-family="Times,serif" font-size="14.00">pipeline.callbacks</text>
</g>
<!-- configs_pp_control_yaml&#45;&gt;pipeline_callbacks -->
<g id="edge4" class="edge">
<title>configs_pp_control_yaml&#45;&gt;pipeline_callbacks</title>
<path fill="none" stroke="#999999" d="M672.54,-503.88C645.43,-494.09 611.26,-481.77 582.74,-471.47"/>
<polygon fill="#999999" stroke="#999999" points="583.9,-468.17 573.3,-468.07 581.52,-474.75 583.9,-468.17"/>
</g>
<!-- pipeline_trainer_config -->
<g id="node13" class="node">
<title>pipeline_trainer_config</title>
<path fill="lightgreen" stroke="black" d="M1008.5,-468C1008.5,-468 855.5,-468 855.5,-468 849.5,-468 843.5,-462 843.5,-456 843.5,-456 843.5,-444 843.5,-444 843.5,-438 849.5,-432 855.5,-432 855.5,-432 1008.5,-432 1008.5,-432 1014.5,-432 1020.5,-438 1020.5,-444 1020.5,-444 1020.5,-456 1020.5,-456 1020.5,-462 1014.5,-468 1008.5,-468"/>
<text text-anchor="middle" x="932" y="-446.3" font-family="Times,serif" font-size="14.00">pipeline.trainer_config</text>
</g>
<!-- configs_pp_control_yaml&#45;&gt;pipeline_trainer_config -->
<g id="edge5" class="edge">
<title>configs_pp_control_yaml&#45;&gt;pipeline_trainer_config</title>
<path fill="none" stroke="#999999" d="M771.59,-503.97C801.47,-494.1 839.26,-481.62 870.66,-471.25"/>
<polygon fill="#999999" stroke="#999999" points="871.78,-474.57 880.18,-468.11 869.59,-467.92 871.78,-474.57"/>
</g>
<!-- project_yaml -->
<g id="node14" class="node">
<title>project_yaml</title>
<path fill="lightblue" stroke="black" d="M761,-468C761,-468 679,-468 679,-468 673,-468 667,-462 667,-456 667,-456 667,-444 667,-444 667,-438 673,-432 679,-432 679,-432 761,-432 761,-432 767,-432 773,-438 773,-444 773,-444 773,-456 773,-456 773,-462 767,-468 761,-468"/>
<text text-anchor="middle" x="720" y="-446.3" font-family="Times,serif" font-size="14.00">project.yaml</text>
</g>
<!-- configs_pp_control_yaml&#45;&gt;project_yaml -->
<g id="edge6" class="edge">
<title>configs_pp_control_yaml&#45;&gt;project_yaml</title>
<path fill="none" stroke="#999999" d="M720,-503.7C720,-495.98 720,-486.71 720,-478.11"/>
<polygon fill="#999999" stroke="#999999" points="723.5,-478.1 720,-468.1 716.5,-478.1 723.5,-478.1"/>
</g>
<!-- datasets_llm_dataset_project_yaml -->
<g id="node7" class="node">
<title>datasets_llm_dataset_project_yaml</title>
<path fill="lightcoral" stroke="black" d="M997,-324C997,-324 761,-324 761,-324 755,-324 749,-318 749,-312 749,-312 749,-300 749,-300 749,-294 755,-288 761,-288 761,-288 997,-288 997,-288 1003,-288 1009,-294 1009,-300 1009,-300 1009,-312 1009,-312 1009,-318 1003,-324 997,-324"/>
<text text-anchor="middle" x="879" y="-302.3" font-family="Times,serif" font-size="14.00">datasets/llm_dataset_project.yaml</text>
</g>
<!-- experiment_callbacks&#45;&gt;pipeline_callbacks -->
<g id="edge23" class="edge">
<title>experiment_callbacks&#45;&gt;pipeline_callbacks</title>
<path fill="none" stroke="#999999" d="M526,-503.7C526,-495.98 526,-486.71 526,-478.11"/>
<polygon fill="#999999" stroke="#999999" points="529.5,-478.1 526,-468.1 522.5,-478.1 529.5,-478.1"/>
</g>
<!-- experiment_trainer_config&#45;&gt;pipeline_trainer_config -->
<g id="edge28" class="edge">
<title>experiment_trainer_config&#45;&gt;pipeline_trainer_config</title>
<path fill="none" stroke="#999999" d="M932,-503.7C932,-495.98 932,-486.71 932,-478.11"/>
<polygon fill="#999999" stroke="#999999" points="935.5,-478.1 932,-468.1 928.5,-478.1 935.5,-478.1"/>
</g>
<!-- models_causal_lm_import_model_project_yaml -->
<g id="node11" class="node">
<title>models_causal_lm_import_model_project_yaml</title>
<path fill="lightyellow" stroke="black" d="M459.5,-324C459.5,-324 142.5,-324 142.5,-324 136.5,-324 130.5,-318 130.5,-312 130.5,-312 130.5,-300 130.5,-300 130.5,-294 136.5,-288 142.5,-288 142.5,-288 459.5,-288 459.5,-288 465.5,-288 471.5,-294 471.5,-300 471.5,-300 471.5,-312 471.5,-312 471.5,-318 465.5,-324 459.5,-324"/>
<text text-anchor="middle" x="301" y="-302.3" font-family="Times,serif" font-size="14.00">models/causal_lm/import_model_project.yaml</text>
</g>
<!-- tiny_callbacks -->
<g id="node17" class="node">
<title>tiny_callbacks</title>
<path fill="lightgray" stroke="black" d="M100,-324C100,-324 12,-324 12,-324 6,-324 0,-318 0,-312 0,-312 0,-300 0,-300 0,-294 6,-288 12,-288 12,-288 100,-288 100,-288 106,-288 112,-294 112,-300 112,-300 112,-312 112,-312 112,-318 106,-324 100,-324"/>
<text text-anchor="middle" x="56" y="-302.3" font-family="Times,serif" font-size="14.00">tiny.callbacks</text>
</g>
<!-- pipeline_callbacks&#45;&gt;tiny_callbacks -->
<g id="edge24" class="edge">
<title>pipeline_callbacks&#45;&gt;tiny_callbacks</title>
<path fill="none" stroke="#999999" d="M469.31,-431.87C381.91,-405.47 214.7,-354.95 121.99,-326.94"/>
<polygon fill="#999999" stroke="#999999" points="122.75,-323.51 112.16,-323.97 120.72,-330.21 122.75,-323.51"/>
</g>
<!-- tiny_trainer_config -->
<g id="node18" class="node">
<title>tiny_trainer_config</title>
<path fill="lightgreen" stroke="black" d="M1161,-324C1161,-324 1039,-324 1039,-324 1033,-324 1027,-318 1027,-312 1027,-312 1027,-300 1027,-300 1027,-294 1033,-288 1039,-288 1039,-288 1161,-288 1161,-288 1167,-288 1173,-294 1173,-300 1173,-300 1173,-312 1173,-312 1173,-318 1167,-324 1161,-324"/>
<text text-anchor="middle" x="1100" y="-302.3" font-family="Times,serif" font-size="14.00">tiny.trainer_config</text>
</g>
<!-- pipeline_trainer_config&#45;&gt;tiny_trainer_config -->
<g id="edge29" class="edge">
<title>pipeline_trainer_config&#45;&gt;tiny_trainer_config</title>
<path fill="none" stroke="#999999" d="M952.26,-431.87C982.16,-406.6 1038.18,-359.25 1071.99,-330.68"/>
<polygon fill="#999999" stroke="#999999" points="1074.29,-333.32 1079.66,-324.19 1069.77,-327.97 1074.29,-333.32"/>
</g>
<!-- projects_tiny_yaml -->
<g id="node15" class="node">
<title>projects_tiny_yaml</title>
<path fill="lightblue" stroke="black" d="M715.5,-396C715.5,-396 596.5,-396 596.5,-396 590.5,-396 584.5,-390 584.5,-384 584.5,-384 584.5,-372 584.5,-372 584.5,-366 590.5,-360 596.5,-360 596.5,-360 715.5,-360 715.5,-360 721.5,-360 727.5,-366 727.5,-372 727.5,-372 727.5,-384 727.5,-384 727.5,-390 721.5,-396 715.5,-396"/>
<text text-anchor="middle" x="656" y="-374.3" font-family="Times,serif" font-size="14.00">projects/tiny.yaml</text>
</g>
<!-- project_yaml&#45;&gt;projects_tiny_yaml -->
<g id="edge8" class="edge">
<title>project_yaml&#45;&gt;projects_tiny_yaml</title>
<path fill="none" stroke="#999999" d="M704.18,-431.7C696.43,-423.22 686.96,-412.86 678.48,-403.58"/>
<polygon fill="#999999" stroke="#999999" points="680.97,-401.12 671.64,-396.1 675.8,-405.85 680.97,-401.12"/>
</g>
<!-- project_trainer_config -->
<g id="node24" class="node">
<title>project_trainer_config</title>
<path fill="none" stroke="black" d="M906.5,-396C906.5,-396 757.5,-396 757.5,-396 751.5,-396 745.5,-390 745.5,-384 745.5,-384 745.5,-372 745.5,-372 745.5,-366 751.5,-360 757.5,-360 757.5,-360 906.5,-360 906.5,-360 912.5,-360 918.5,-366 918.5,-372 918.5,-372 918.5,-384 918.5,-384 918.5,-390 912.5,-396 906.5,-396"/>
<text text-anchor="middle" x="832" y="-374.3" font-family="Times,serif" font-size="14.00">project_trainer_config</text>
</g>
<!-- project_yaml&#45;&gt;project_trainer_config -->
<g id="edge7" class="edge">
<title>project_yaml&#45;&gt;project_trainer_config</title>
<path fill="none" stroke="#999999" d="M747.4,-431.88C761.91,-422.81 779.92,-411.55 795.59,-401.76"/>
<polygon fill="#999999" stroke="#999999" points="797.87,-404.46 804.5,-396.19 794.16,-398.52 797.87,-404.46"/>
</g>
<!-- projects_tiny_yaml&#45;&gt;datasets_llm_dataset_project_yaml -->
<g id="edge9" class="edge">
<title>projects_tiny_yaml&#45;&gt;datasets_llm_dataset_project_yaml</title>
<path fill="none" stroke="#999999" d="M710.27,-359.97C741.83,-350.06 781.79,-337.51 814.9,-327.12"/>
<polygon fill="#999999" stroke="#999999" points="816,-330.45 824.49,-324.11 813.9,-323.77 816,-330.45"/>
</g>
<!-- projects_tiny_yaml&#45;&gt;models_causal_lm_import_model_project_yaml -->
<g id="edge10" class="edge">
<title>projects_tiny_yaml&#45;&gt;models_causal_lm_import_model_project_yaml</title>
<path fill="none" stroke="#999999" d="M584.16,-362.83C530.44,-352.24 456.41,-337.65 397.52,-326.03"/>
<polygon fill="#999999" stroke="#999999" points="397.95,-322.55 387.46,-324.05 396.6,-329.42 397.95,-322.55"/>
</g>
<!-- prompts_tiny_stories_yaml -->
<g id="node16" class="node">
<title>prompts_tiny_stories_yaml</title>
<path fill="lightblue" stroke="black" d="M680.5,-324C680.5,-324 501.5,-324 501.5,-324 495.5,-324 489.5,-318 489.5,-312 489.5,-312 489.5,-300 489.5,-300 489.5,-294 495.5,-288 501.5,-288 501.5,-288 680.5,-288 680.5,-288 686.5,-288 692.5,-294 692.5,-300 692.5,-300 692.5,-312 692.5,-312 692.5,-318 686.5,-324 680.5,-324"/>
<text text-anchor="middle" x="591" y="-302.3" font-family="Times,serif" font-size="14.00">prompts/tiny_stories.yaml</text>
</g>
<!-- projects_tiny_yaml&#45;&gt;prompts_tiny_stories_yaml -->
<g id="edge11" class="edge">
<title>projects_tiny_yaml&#45;&gt;prompts_tiny_stories_yaml</title>
<path fill="none" stroke="#999999" d="M639.93,-359.7C632.06,-351.22 622.44,-340.86 613.83,-331.58"/>
<polygon fill="#999999" stroke="#999999" points="616.25,-329.05 606.88,-324.1 611.12,-333.81 616.25,-329.05"/>
</g>
<!-- projects_tiny_yaml&#45;&gt;tiny_callbacks -->
<g id="edge12" class="edge">
<title>projects_tiny_yaml&#45;&gt;tiny_callbacks</title>
<path fill="none" stroke="#999999" d="M584.11,-373.47C482.91,-367.71 292.65,-353.96 122.16,-324.05"/>
<polygon fill="#999999" stroke="#999999" points="122.71,-320.59 112.25,-322.29 121.48,-327.48 122.71,-320.59"/>
</g>
<!-- projects_tiny_yaml&#45;&gt;tiny_trainer_config -->
<g id="edge13" class="edge">
<title>projects_tiny_yaml&#45;&gt;tiny_trainer_config</title>
<path fill="none" stroke="#999999" d="M727.9,-361.43C730.63,-360.93 733.34,-360.45 736,-360 857.4,-339.39 891.65,-344.55 1016.77,-324.13"/>
<polygon fill="#999999" stroke="#999999" points="1017.44,-327.57 1026.74,-322.48 1016.3,-320.66 1017.44,-327.57"/>
</g>
<!-- training_script_causal_lm_causal_lm_yaml -->
<g id="node22" class="node">
<title>training_script_causal_lm_causal_lm_yaml</title>
<path fill="lightblue" stroke="black" d="M863.5,-252C863.5,-252 578.5,-252 578.5,-252 572.5,-252 566.5,-246 566.5,-240 566.5,-240 566.5,-228 566.5,-228 566.5,-222 572.5,-216 578.5,-216 578.5,-216 863.5,-216 863.5,-216 869.5,-216 875.5,-222 875.5,-228 875.5,-228 875.5,-240 875.5,-240 875.5,-246 869.5,-252 863.5,-252"/>
<text text-anchor="middle" x="721" y="-230.3" font-family="Times,serif" font-size="14.00">training_script/causal_lm/causal_lm.yaml</text>
</g>
<!-- projects_tiny_yaml&#45;&gt;training_script_causal_lm_causal_lm_yaml -->
<g id="edge14" class="edge">
<title>projects_tiny_yaml&#45;&gt;training_script_causal_lm_causal_lm_yaml</title>
<path fill="none" stroke="#999999" d="M674.23,-359.94C683.56,-350.25 694.32,-337.4 701,-324 710.69,-304.57 715.73,-280.43 718.33,-262.19"/>
<polygon fill="#999999" stroke="#999999" points="721.81,-262.58 719.6,-252.22 714.87,-261.7 721.81,-262.58"/>
</g>
<!-- tiny_callbacks&#45;&gt;callbacks_loggers_yaml -->
<g id="edge25" class="edge">
<title>tiny_callbacks&#45;&gt;callbacks_loggers_yaml</title>
<path fill="none" stroke="#999999" d="M101.72,-287.87C171.53,-261.72 304.49,-211.9 379.65,-183.74"/>
<polygon fill="#999999" stroke="#999999" points="381.28,-186.86 389.42,-180.08 378.82,-180.31 381.28,-186.86"/>
</g>
<!-- trainers_pipeline_trainer_yaml -->
<g id="node20" class="node">
<title>trainers_pipeline_trainer_yaml</title>
<path fill="lightgreen" stroke="black" d="M1156.5,-252C1156.5,-252 951.5,-252 951.5,-252 945.5,-252 939.5,-246 939.5,-240 939.5,-240 939.5,-228 939.5,-228 939.5,-222 945.5,-216 951.5,-216 951.5,-216 1156.5,-216 1156.5,-216 1162.5,-216 1168.5,-222 1168.5,-228 1168.5,-228 1168.5,-240 1168.5,-240 1168.5,-246 1162.5,-252 1156.5,-252"/>
<text text-anchor="middle" x="1054" y="-230.3" font-family="Times,serif" font-size="14.00">trainers/pipeline_trainer.yaml</text>
</g>
<!-- tiny_trainer_config&#45;&gt;trainers_pipeline_trainer_yaml -->
<g id="edge33" class="edge">
<title>tiny_trainer_config&#45;&gt;trainers_pipeline_trainer_yaml</title>
<path fill="none" stroke="#999999" d="M1088.63,-287.7C1083.28,-279.56 1076.8,-269.69 1070.89,-260.7"/>
<polygon fill="#999999" stroke="#999999" points="1073.66,-258.54 1065.24,-252.1 1067.81,-262.38 1073.66,-258.54"/>
</g>
<!-- trainers_base_trainer_yaml -->
<g id="node19" class="node">
<title>trainers_base_trainer_yaml</title>
<path fill="lightgreen" stroke="black" d="M1072.5,-108C1072.5,-108 891.5,-108 891.5,-108 885.5,-108 879.5,-102 879.5,-96 879.5,-96 879.5,-84 879.5,-84 879.5,-78 885.5,-72 891.5,-72 891.5,-72 1072.5,-72 1072.5,-72 1078.5,-72 1084.5,-78 1084.5,-84 1084.5,-84 1084.5,-96 1084.5,-96 1084.5,-102 1078.5,-108 1072.5,-108"/>
<text text-anchor="middle" x="982" y="-86.3" font-family="Times,serif" font-size="14.00">trainers/base_trainer.yaml</text>
</g>
<!-- trainers_base_trainer_yaml&#45;&gt;inc_formatting_jinja -->
<g id="edge32" class="edge">
<title>trainers_base_trainer_yaml&#45;&gt;inc_formatting_jinja</title>
<path fill="none" stroke="#999999" d="M892.79,-72C841.26,-62.15 774.94,-49.41 707.33,-36.26"/>
<polygon fill="#999999" stroke="#999999" points="707.84,-32.79 697.35,-34.31 706.5,-39.66 707.84,-32.79"/>
</g>
<!-- trainers_trainer_yaml -->
<g id="node21" class="node">
<title>trainers_trainer_yaml</title>
<path fill="lightgreen" stroke="black" d="M1085.5,-180C1085.5,-180 944.5,-180 944.5,-180 938.5,-180 932.5,-174 932.5,-168 932.5,-168 932.5,-156 932.5,-156 932.5,-150 938.5,-144 944.5,-144 944.5,-144 1085.5,-144 1085.5,-144 1091.5,-144 1097.5,-150 1097.5,-156 1097.5,-156 1097.5,-168 1097.5,-168 1097.5,-174 1091.5,-180 1085.5,-180"/>
<text text-anchor="middle" x="1015" y="-158.3" font-family="Times,serif" font-size="14.00">trainers/trainer.yaml</text>
</g>
<!-- trainers_pipeline_trainer_yaml&#45;&gt;trainers_trainer_yaml -->
<g id="edge30" class="edge">
<title>trainers_pipeline_trainer_yaml&#45;&gt;trainers_trainer_yaml</title>
<path fill="none" stroke="#999999" d="M1044.36,-215.7C1039.87,-207.64 1034.44,-197.89 1029.48,-188.98"/>
<polygon fill="#999999" stroke="#999999" points="1032.45,-187.14 1024.53,-180.1 1026.34,-190.54 1032.45,-187.14"/>
</g>
<!-- trainers_trainer_yaml&#45;&gt;trainers_base_trainer_yaml -->
<g id="edge31" class="edge">
<title>trainers_trainer_yaml&#45;&gt;trainers_base_trainer_yaml</title>
<path fill="none" stroke="#999999" d="M1006.84,-143.7C1003.09,-135.73 998.55,-126.1 994.38,-117.26"/>
<polygon fill="#999999" stroke="#999999" points="997.49,-115.66 990.06,-108.1 991.16,-118.64 997.49,-115.66"/>
</g>
<!-- training_script_causal_lm_causal_lm_yaml&#45;&gt;callbacks_loggers_yaml -->
<g id="edge15" class="edge">
<title>training_script_causal_lm_causal_lm_yaml&#45;&gt;callbacks_loggers_yaml</title>
<path fill="none" stroke="#999999" d="M651.4,-215.97C610.14,-205.87 557.69,-193.03 514.76,-182.52"/>
<polygon fill="#999999" stroke="#999999" points="515.46,-179.09 504.91,-180.11 513.79,-185.89 515.46,-179.09"/>
</g>
<!-- training_script_causal_lm_causal_lm_yaml&#45;&gt;inc_formatting_jinja -->
<g id="edge16" class="edge">
<title>training_script_causal_lm_causal_lm_yaml&#45;&gt;inc_formatting_jinja</title>
<path fill="none" stroke="#999999" d="M643.61,-215.88C625.32,-208.03 607.96,-196.61 597,-180 569.96,-139.04 590.25,-79.46 606.06,-45.45"/>
<polygon fill="#999999" stroke="#999999" points="609.35,-46.69 610.56,-36.16 603.05,-43.63 609.35,-46.69"/>
</g>
<!-- training_script_causal_lm_causal_lm_yaml&#45;&gt;trainers_trainer_yaml -->
<g id="edge17" class="edge">
<title>training_script_causal_lm_causal_lm_yaml&#45;&gt;trainers_trainer_yaml</title>
<path fill="none" stroke="#999999" d="M792.54,-215.97C835.13,-205.83 889.31,-192.93 933.54,-182.4"/>
<polygon fill="#999999" stroke="#999999" points="934.47,-185.77 943.39,-180.05 932.85,-178.96 934.47,-185.77"/>
</g>
<!-- training_script_training_script_type_yaml -->
<g id="node23" class="node">
<title>training_script_training_script_type_yaml</title>
<path fill="lightblue" stroke="black" d="M902,-180C902,-180 618,-180 618,-180 612,-180 606,-174 606,-168 606,-168 606,-156 606,-156 606,-150 612,-144 618,-144 618,-144 902,-144 902,-144 908,-144 914,-150 914,-156 914,-156 914,-168 914,-168 914,-174 908,-180 902,-180"/>
<text text-anchor="middle" x="760" y="-158.3" font-family="Times,serif" font-size="14.00">training_script/training_script_type.yaml</text>
</g>
<!-- training_script_causal_lm_causal_lm_yaml&#45;&gt;training_script_training_script_type_yaml -->
<g id="edge18" class="edge">
<title>training_script_causal_lm_causal_lm_yaml&#45;&gt;training_script_training_script_type_yaml</title>
<path fill="none" stroke="#999999" d="M730.64,-215.7C735.13,-207.64 740.56,-197.89 745.52,-188.98"/>
<polygon fill="#999999" stroke="#999999" points="748.66,-190.54 750.47,-180.1 742.55,-187.14 748.66,-190.54"/>
</g>
<!-- training_script_training_script_type_yaml&#45;&gt;config_type_yaml -->
<g id="edge19" class="edge">
<title>training_script_training_script_type_yaml&#45;&gt;config_type_yaml</title>
<path fill="none" stroke="#999999" d="M760,-143.7C760,-135.98 760,-126.71 760,-118.11"/>
<polygon fill="#999999" stroke="#999999" points="763.5,-118.1 760,-108.1 756.5,-118.1 763.5,-118.1"/>
</g>
<!-- training_script_training_script_type_yaml&#45;&gt;inc_formatting_jinja -->
<g id="edge20" class="edge">
<title>training_script_training_script_type_yaml&#45;&gt;inc_formatting_jinja</title>
<path fill="none" stroke="#999999" d="M729.56,-143.95C714.29,-134.53 696.09,-121.93 682,-108 662.89,-89.12 645.83,-63.64 634.46,-44.78"/>
<polygon fill="#999999" stroke="#999999" points="637.45,-42.96 629.36,-36.12 631.42,-46.51 637.45,-42.96"/>
</g>
</g>
</svg>
