<?xml version="1.0" encoding="UTF-8" standalone="no"?>
<!DOCTYPE svg PUBLIC "-//W3C//DTD SVG 1.1//EN"
 "http://www.w3.org/Graphics/SVG/1.1/DTD/svg11.dtd">
<!-- Generated by graphviz version 2.43.0 (0)
 -->
<!-- Title: TemplateHierarchy Pages: 1 -->
<svg width="1681pt" height="548pt"
 viewBox="0.00 0.00 1680.50 548.00" xmlns="http://www.w3.org/2000/svg" xmlns:xlink="http://www.w3.org/1999/xlink">
<g id="graph0" class="graph" transform="scale(1 1) rotate(0) translate(4 544)">
<title>TemplateHierarchy</title>
<polygon fill="white" stroke="transparent" points="-4,4 -4,-544 1676.5,-544 1676.5,4 -4,4"/>
<!-- base_directories_yaml -->
<g id="node1" class="node">
<title>base_directories_yaml</title>
<path fill="lightblue" stroke="black" d="M736.5,-36C736.5,-36 587.5,-36 587.5,-36 581.5,-36 575.5,-30 575.5,-24 575.5,-24 575.5,-12 575.5,-12 575.5,-6 581.5,0 587.5,0 587.5,0 736.5,0 736.5,0 742.5,0 748.5,-6 748.5,-12 748.5,-12 748.5,-24 748.5,-24 748.5,-30 742.5,-36 736.5,-36"/>
<text text-anchor="middle" x="662" y="-14.3" font-family="Times,serif" font-size="14.00">base_directories.yaml</text>
</g>
<!-- callbacks_base_callbacks_yaml -->
<g id="node2" class="node">
<title>callbacks_base_callbacks_yaml</title>
<path fill="lightgray" stroke="black" d="M1078,-108C1078,-108 872,-108 872,-108 866,-108 860,-102 860,-96 860,-96 860,-84 860,-84 860,-78 866,-72 872,-72 872,-72 1078,-72 1078,-72 1084,-72 1090,-78 1090,-84 1090,-84 1090,-96 1090,-96 1090,-102 1084,-108 1078,-108"/>
<text text-anchor="middle" x="975" y="-86.3" font-family="Times,serif" font-size="14.00">callbacks/base_callbacks.yaml</text>
</g>
<!-- inc_formatting_jinja -->
<g id="node9" class="node">
<title>inc_formatting_jinja</title>
<path fill="white" stroke="black" d="M957,-36C957,-36 827,-36 827,-36 821,-36 815,-30 815,-24 815,-24 815,-12 815,-12 815,-6 821,0 827,0 827,0 957,0 957,0 963,0 969,-6 969,-12 969,-12 969,-24 969,-24 969,-30 963,-36 957,-36"/>
<text text-anchor="middle" x="892" y="-14.3" font-family="Times,serif" font-size="14.00">inc/formatting.jinja</text>
</g>
<!-- callbacks_base_callbacks_yaml&#45;&gt;inc_formatting_jinja -->
<g id="edge26" class="edge">
<title>callbacks_base_callbacks_yaml&#45;&gt;inc_formatting_jinja</title>
<path fill="none" stroke="#999999" d="M954.48,-71.7C944.13,-62.97 931.41,-52.24 920.16,-42.75"/>
<polygon fill="#999999" stroke="#999999" points="922.18,-39.88 912.28,-36.1 917.67,-45.23 922.18,-39.88"/>
</g>
<!-- callbacks_loggers_yaml -->
<g id="node3" class="node">
<title>callbacks_loggers_yaml</title>
<path fill="lightgray" stroke="black" d="M1052.5,-180C1052.5,-180 897.5,-180 897.5,-180 891.5,-180 885.5,-174 885.5,-168 885.5,-168 885.5,-156 885.5,-156 885.5,-150 891.5,-144 897.5,-144 897.5,-144 1052.5,-144 1052.5,-144 1058.5,-144 1064.5,-150 1064.5,-156 1064.5,-156 1064.5,-168 1064.5,-168 1064.5,-174 1058.5,-180 1052.5,-180"/>
<text text-anchor="middle" x="975" y="-158.3" font-family="Times,serif" font-size="14.00">callbacks/loggers.yaml</text>
</g>
<!-- callbacks_loggers_yaml&#45;&gt;callbacks_base_callbacks_yaml -->
<g id="edge25" class="edge">
<title>callbacks_loggers_yaml&#45;&gt;callbacks_base_callbacks_yaml</title>
<path fill="none" stroke="#999999" d="M975,-143.7C975,-135.98 975,-126.71 975,-118.11"/>
<polygon fill="#999999" stroke="#999999" points="978.5,-118.1 975,-108.1 971.5,-118.1 978.5,-118.1"/>
</g>
<!-- config_type_yaml -->
<g id="node4" class="node">
<title>config_type_yaml</title>
<path fill="lightblue" stroke="black" d="M718.5,-108C718.5,-108 605.5,-108 605.5,-108 599.5,-108 593.5,-102 593.5,-96 593.5,-96 593.5,-84 593.5,-84 593.5,-78 599.5,-72 605.5,-72 605.5,-72 718.5,-72 718.5,-72 724.5,-72 730.5,-78 730.5,-84 730.5,-84 730.5,-96 730.5,-96 730.5,-102 724.5,-108 718.5,-108"/>
<text text-anchor="middle" x="662" y="-86.3" font-family="Times,serif" font-size="14.00">config_type.yaml</text>
</g>
<!-- config_type_yaml&#45;&gt;base_directories_yaml -->
<g id="edge15" class="edge">
<title>config_type_yaml&#45;&gt;base_directories_yaml</title>
<path fill="none" stroke="#999999" d="M662,-71.7C662,-63.98 662,-54.71 662,-46.11"/>
<polygon fill="#999999" stroke="#999999" points="665.5,-46.1 662,-36.1 658.5,-46.1 665.5,-46.1"/>
</g>
<!-- config_type_yaml&#45;&gt;inc_formatting_jinja -->
<g id="edge16" class="edge">
<title>config_type_yaml&#45;&gt;inc_formatting_jinja</title>
<path fill="none" stroke="#999999" d="M717.97,-71.97C750.53,-62.06 791.74,-49.51 825.89,-39.12"/>
<polygon fill="#999999" stroke="#999999" points="827.23,-42.37 835.78,-36.11 825.19,-35.67 827.23,-42.37"/>
</g>
<!-- configs_custom_model_yaml -->
<g id="node5" class="node">
<title>configs_custom_model_yaml</title>
<path fill="lightyellow" stroke="black" d="M1109,-540C1109,-540 921,-540 921,-540 915,-540 909,-534 909,-528 909,-528 909,-516 909,-516 909,-510 915,-504 921,-504 921,-504 1109,-504 1109,-504 1115,-504 1121,-510 1121,-516 1121,-516 1121,-528 1121,-528 1121,-534 1115,-540 1109,-540"/>
<text text-anchor="middle" x="1015" y="-518.3" font-family="Times,serif" font-size="14.00">configs/custom_model.yaml</text>
</g>
<!-- custom_model_model_config -->
<g id="node6" class="node">
<title>custom_model_model_config</title>
<path fill="lightyellow" stroke="black" d="M1348,-468C1348,-468 1156,-468 1156,-468 1150,-468 1144,-462 1144,-456 1144,-456 1144,-444 1144,-444 1144,-438 1150,-432 1156,-432 1156,-432 1348,-432 1348,-432 1354,-432 1360,-438 1360,-444 1360,-444 1360,-456 1360,-456 1360,-462 1354,-468 1348,-468"/>
<text text-anchor="middle" x="1252" y="-446.3" font-family="Times,serif" font-size="14.00">custom_model.model_config</text>
</g>
<!-- configs_custom_model_yaml&#45;&gt;custom_model_model_config -->
<g id="edge1" class="edge">
<title>configs_custom_model_yaml&#45;&gt;custom_model_model_config</title>
<path fill="none" stroke="#999999" d="M1072.67,-503.97C1106.36,-494.01 1149.05,-481.41 1184.33,-470.99"/>
<polygon fill="#999999" stroke="#999999" points="1185.47,-474.3 1194.07,-468.11 1183.49,-467.59 1185.47,-474.3"/>
</g>
<!-- custom_model_trainer_config -->
<g id="node7" class="node">
<title>custom_model_trainer_config</title>
<path fill="lightgreen" stroke="black" d="M1114,-468C1114,-468 916,-468 916,-468 910,-468 904,-462 904,-456 904,-456 904,-444 904,-444 904,-438 910,-432 916,-432 916,-432 1114,-432 1114,-432 1120,-432 1126,-438 1126,-444 1126,-444 1126,-456 1126,-456 1126,-462 1120,-468 1114,-468"/>
<text text-anchor="middle" x="1015" y="-446.3" font-family="Times,serif" font-size="14.00">custom_model.trainer_config</text>
</g>
<!-- configs_custom_model_yaml&#45;&gt;custom_model_trainer_config -->
<g id="edge2" class="edge">
<title>configs_custom_model_yaml&#45;&gt;custom_model_trainer_config</title>
<path fill="none" stroke="#999999" d="M1015,-503.7C1015,-495.98 1015,-486.71 1015,-478.11"/>
<polygon fill="#999999" stroke="#999999" points="1018.5,-478.1 1015,-468.1 1011.5,-478.1 1018.5,-478.1"/>
</g>
<!-- project_yaml -->
<g id="node17" class="node">
<title>project_yaml</title>
<path fill="lightblue" stroke="black" d="M850,-324C850,-324 768,-324 768,-324 762,-324 756,-318 756,-312 756,-312 756,-300 756,-300 756,-294 762,-288 768,-288 768,-288 850,-288 850,-288 856,-288 862,-294 862,-300 862,-300 862,-312 862,-312 862,-318 856,-324 850,-324"/>
<text text-anchor="middle" x="809" y="-302.3" font-family="Times,serif" font-size="14.00">project.yaml</text>
</g>
<!-- configs_custom_model_yaml&#45;&gt;project_yaml -->
<g id="edge3" class="edge">
<title>configs_custom_model_yaml&#45;&gt;project_yaml</title>
<path fill="none" stroke="#999999" d="M956.07,-503.93C934.98,-495.65 912.2,-483.96 895,-468 854.41,-430.33 829.16,-369.07 817.22,-333.98"/>
<polygon fill="#999999" stroke="#999999" points="820.52,-332.8 814.08,-324.4 813.87,-334.99 820.52,-332.8"/>
</g>
<!-- models_example_model_config_yaml -->
<g id="node13" class="node">
<title>models_example_model_config_yaml</title>
<path fill="lightyellow" stroke="black" d="M1375.5,-396C1375.5,-396 1128.5,-396 1128.5,-396 1122.5,-396 1116.5,-390 1116.5,-384 1116.5,-384 1116.5,-372 1116.5,-372 1116.5,-366 1122.5,-360 1128.5,-360 1128.5,-360 1375.5,-360 1375.5,-360 1381.5,-360 1387.5,-366 1387.5,-372 1387.5,-372 1387.5,-384 1387.5,-384 1387.5,-390 1381.5,-396 1375.5,-396"/>
<text text-anchor="middle" x="1252" y="-374.3" font-family="Times,serif" font-size="14.00">models/example_model_config.yaml</text>
</g>
<!-- custom_model_model_config&#45;&gt;models_example_model_config_yaml -->
<g id="edge17" class="edge">
<title>custom_model_model_config&#45;&gt;models_example_model_config_yaml</title>
<path fill="none" stroke="#999999" d="M1252,-431.7C1252,-423.98 1252,-414.71 1252,-406.11"/>
<polygon fill="#999999" stroke="#999999" points="1255.5,-406.1 1252,-396.1 1248.5,-406.1 1255.5,-406.1"/>
</g>
<!-- project_trainer_config -->
<g id="node16" class="node">
<title>project_trainer_config</title>
<path fill="lightgreen" stroke="black" d="M1284,-252C1284,-252 1138,-252 1138,-252 1132,-252 1126,-246 1126,-240 1126,-240 1126,-228 1126,-228 1126,-222 1132,-216 1138,-216 1138,-216 1284,-216 1284,-216 1290,-216 1296,-222 1296,-228 1296,-228 1296,-240 1296,-240 1296,-246 1290,-252 1284,-252"/>
<text text-anchor="middle" x="1211" y="-230.3" font-family="Times,serif" font-size="14.00">project.trainer_config</text>
</g>
<!-- custom_model_trainer_config&#45;&gt;project_trainer_config -->
<g id="edge27" class="edge">
<title>custom_model_trainer_config&#45;&gt;project_trainer_config</title>
<path fill="none" stroke="#999999" d="M1013.05,-431.51C1010.44,-399.01 1009.75,-328.9 1046,-288 1057.08,-275.5 1089.59,-263.87 1122.86,-254.71"/>
<polygon fill="#999999" stroke="#999999" points="1123.95,-258.04 1132.71,-252.07 1122.14,-251.28 1123.95,-258.04"/>
</g>
<!-- datasets_llm_dataset_project_yaml -->
<g id="node8" class="node">
<title>datasets_llm_dataset_project_yaml</title>
<path fill="lightcoral" stroke="black" d="M248,-252C248,-252 12,-252 12,-252 6,-252 0,-246 0,-240 0,-240 0,-228 0,-228 0,-222 6,-216 12,-216 12,-216 248,-216 248,-216 254,-216 260,-222 260,-228 260,-228 260,-240 260,-240 260,-246 254,-252 248,-252"/>
<text text-anchor="middle" x="130" y="-230.3" font-family="Times,serif" font-size="14.00">datasets/llm_dataset_project.yaml</text>
</g>
<!-- models_base_language_model_yaml -->
<g id="node10" class="node">
<title>models_base_language_model_yaml</title>
<path fill="lightyellow" stroke="black" d="M1586,-108C1586,-108 1344,-108 1344,-108 1338,-108 1332,-102 1332,-96 1332,-96 1332,-84 1332,-84 1332,-78 1338,-72 1344,-72 1344,-72 1586,-72 1586,-72 1592,-72 1598,-78 1598,-84 1598,-84 1598,-96 1598,-96 1598,-102 1592,-108 1586,-108"/>
<text text-anchor="middle" x="1465" y="-86.3" font-family="Times,serif" font-size="14.00">models/base_language_model.yaml</text>
</g>
<!-- models_base_language_model_yaml&#45;&gt;inc_formatting_jinja -->
<g id="edge23" class="edge">
<title>models_base_language_model_yaml&#45;&gt;inc_formatting_jinja</title>
<path fill="none" stroke="#999999" d="M1331.74,-72.72C1223.11,-59.45 1072.84,-41.09 979.08,-29.64"/>
<polygon fill="#999999" stroke="#999999" points="979.42,-26.15 969.07,-28.41 978.57,-33.1 979.42,-26.15"/>
</g>
<!-- models_causal_lm_custom_yaml -->
<g id="node11" class="node">
<title>models_causal_lm_custom_yaml</title>
<path fill="lightyellow" stroke="black" d="M1571.5,-180C1571.5,-180 1358.5,-180 1358.5,-180 1352.5,-180 1346.5,-174 1346.5,-168 1346.5,-168 1346.5,-156 1346.5,-156 1346.5,-150 1352.5,-144 1358.5,-144 1358.5,-144 1571.5,-144 1571.5,-144 1577.5,-144 1583.5,-150 1583.5,-156 1583.5,-156 1583.5,-168 1583.5,-168 1583.5,-174 1577.5,-180 1571.5,-180"/>
<text text-anchor="middle" x="1465" y="-158.3" font-family="Times,serif" font-size="14.00">models/causal_lm/custom.yaml</text>
</g>
<!-- models_causal_lm_custom_yaml&#45;&gt;models_base_language_model_yaml -->
<g id="edge22" class="edge">
<title>models_causal_lm_custom_yaml&#45;&gt;models_base_language_model_yaml</title>
<path fill="none" stroke="#999999" d="M1465,-143.7C1465,-135.98 1465,-126.71 1465,-118.11"/>
<polygon fill="#999999" stroke="#999999" points="1468.5,-118.1 1465,-108.1 1461.5,-118.1 1468.5,-118.1"/>
</g>
<!-- models_causal_lm_custom_dynamic_yaml -->
<g id="node12" class="node">
<title>models_causal_lm_custom_dynamic_yaml</title>
<path fill="lightyellow" stroke="black" d="M1606,-252C1606,-252 1326,-252 1326,-252 1320,-252 1314,-246 1314,-240 1314,-240 1314,-228 1314,-228 1314,-222 1320,-216 1326,-216 1326,-216 1606,-216 1606,-216 1612,-216 1618,-222 1618,-228 1618,-228 1618,-240 1618,-240 1618,-246 1612,-252 1606,-252"/>
<text text-anchor="middle" x="1466" y="-230.3" font-family="Times,serif" font-size="14.00">models/causal_lm/custom_dynamic.yaml</text>
</g>
<!-- models_causal_lm_custom_dynamic_yaml&#45;&gt;models_causal_lm_custom_yaml -->
<g id="edge21" class="edge">
<title>models_causal_lm_custom_dynamic_yaml&#45;&gt;models_causal_lm_custom_yaml</title>
<path fill="none" stroke="#999999" d="M1465.75,-215.7C1465.64,-207.98 1465.51,-198.71 1465.39,-190.11"/>
<polygon fill="#999999" stroke="#999999" points="1468.89,-190.05 1465.24,-180.1 1461.89,-190.15 1468.89,-190.05"/>
</g>
<!-- models_transformers_dynamic_causal_transformer_yaml -->
<g id="node14" class="node">
<title>models_transformers_dynamic_causal_transformer_yaml</title>
<path fill="lightyellow" stroke="black" d="M1660.5,-324C1660.5,-324 1271.5,-324 1271.5,-324 1265.5,-324 1259.5,-318 1259.5,-312 1259.5,-312 1259.5,-300 1259.5,-300 1259.5,-294 1265.5,-288 1271.5,-288 1271.5,-288 1660.5,-288 1660.5,-288 1666.5,-288 1672.5,-294 1672.5,-300 1672.5,-300 1672.5,-312 1672.5,-312 1672.5,-318 1666.5,-324 1660.5,-324"/>
<text text-anchor="middle" x="1466" y="-302.3" font-family="Times,serif" font-size="14.00">models/transformers/dynamic_causal_transformer.yaml</text>
</g>
<!-- models_example_model_config_yaml&#45;&gt;models_transformers_dynamic_causal_transformer_yaml -->
<g id="edge18" class="edge">
<title>models_example_model_config_yaml&#45;&gt;models_transformers_dynamic_causal_transformer_yaml</title>
<path fill="none" stroke="#999999" d="M1304.08,-359.97C1334.24,-350.1 1372.39,-337.62 1404.08,-327.25"/>
<polygon fill="#999999" stroke="#999999" points="1405.27,-330.55 1413.69,-324.11 1403.1,-323.89 1405.27,-330.55"/>
</g>
<!-- tokenizers_tiny_2k_yaml -->
<g id="node18" class="node">
<title>tokenizers_tiny_2k_yaml</title>
<path fill="lightblue" stroke="black" d="M1229,-324C1229,-324 1067,-324 1067,-324 1061,-324 1055,-318 1055,-312 1055,-312 1055,-300 1055,-300 1055,-294 1061,-288 1067,-288 1067,-288 1229,-288 1229,-288 1235,-288 1241,-294 1241,-300 1241,-300 1241,-312 1241,-312 1241,-318 1235,-324 1229,-324"/>
<text text-anchor="middle" x="1148" y="-302.3" font-family="Times,serif" font-size="14.00">tokenizers/tiny_2k.yaml</text>
</g>
<!-- models_example_model_config_yaml&#45;&gt;tokenizers_tiny_2k_yaml -->
<g id="edge19" class="edge">
<title>models_example_model_config_yaml&#45;&gt;tokenizers_tiny_2k_yaml</title>
<path fill="none" stroke="#999999" d="M1226.56,-359.88C1213.21,-350.89 1196.68,-339.76 1182.22,-330.03"/>
<polygon fill="#999999" stroke="#999999" points="1183.79,-326.87 1173.54,-324.19 1179.88,-332.68 1183.79,-326.87"/>
</g>
<!-- models_transformers_dynamic_causal_transformer_yaml&#45;&gt;models_causal_lm_custom_dynamic_yaml -->
<g id="edge20" class="edge">
<title>models_transformers_dynamic_causal_transformer_yaml&#45;&gt;models_causal_lm_custom_dynamic_yaml</title>
<path fill="none" stroke="#999999" d="M1466,-287.7C1466,-279.98 1466,-270.71 1466,-262.11"/>
<polygon fill="#999999" stroke="#999999" points="1469.5,-262.1 1466,-252.1 1462.5,-262.1 1469.5,-262.1"/>
</g>
<!-- project_callbacks -->
<g id="node15" class="node">
<title>project_callbacks</title>
<path fill="lightgray" stroke="black" d="M1095.5,-252C1095.5,-252 982.5,-252 982.5,-252 976.5,-252 970.5,-246 970.5,-240 970.5,-240 970.5,-228 970.5,-228 970.5,-222 976.5,-216 982.5,-216 982.5,-216 1095.5,-216 1095.5,-216 1101.5,-216 1107.5,-222 1107.5,-228 1107.5,-228 1107.5,-240 1107.5,-240 1107.5,-246 1101.5,-252 1095.5,-252"/>
<text text-anchor="middle" x="1039" y="-230.3" font-family="Times,serif" font-size="14.00">project.callbacks</text>
</g>
<!-- project_callbacks&#45;&gt;callbacks_loggers_yaml -->
<g id="edge24" class="edge">
<title>project_callbacks&#45;&gt;callbacks_loggers_yaml</title>
<path fill="none" stroke="#999999" d="M1023.18,-215.7C1015.43,-207.22 1005.96,-196.86 997.48,-187.58"/>
<polygon fill="#999999" stroke="#999999" points="999.97,-185.12 990.64,-180.1 994.8,-189.85 999.97,-185.12"/>
</g>
<!-- trainers_trainer_yaml -->
<g id="node20" class="node">
<title>trainers_trainer_yaml</title>
<path fill="lightgreen" stroke="black" d="M1281.5,-180C1281.5,-180 1140.5,-180 1140.5,-180 1134.5,-180 1128.5,-174 1128.5,-168 1128.5,-168 1128.5,-156 1128.5,-156 1128.5,-150 1134.5,-144 1140.5,-144 1140.5,-144 1281.5,-144 1281.5,-144 1287.5,-144 1293.5,-150 1293.5,-156 1293.5,-156 1293.5,-168 1293.5,-168 1293.5,-174 1287.5,-180 1281.5,-180"/>
<text text-anchor="middle" x="1211" y="-158.3" font-family="Times,serif" font-size="14.00">trainers/trainer.yaml</text>
</g>
<!-- project_trainer_config&#45;&gt;trainers_trainer_yaml -->
<g id="edge28" class="edge">
<title>project_trainer_config&#45;&gt;trainers_trainer_yaml</title>
<path fill="none" stroke="#999999" d="M1211,-215.7C1211,-207.98 1211,-198.71 1211,-190.11"/>
<polygon fill="#999999" stroke="#999999" points="1214.5,-190.1 1211,-180.1 1207.5,-190.1 1214.5,-190.1"/>
</g>
<!-- project_yaml&#45;&gt;datasets_llm_dataset_project_yaml -->
<g id="edge4" class="edge">
<title>project_yaml&#45;&gt;datasets_llm_dataset_project_yaml</title>
<path fill="none" stroke="#999999" d="M755.69,-300.19C660.49,-291.52 454.75,-272.34 270.36,-252.14"/>
<polygon fill="#999999" stroke="#999999" points="270.53,-248.63 260.21,-251.02 269.77,-255.59 270.53,-248.63"/>
</g>
<!-- project_yaml&#45;&gt;project_callbacks -->
<g id="edge6" class="edge">
<title>project_yaml&#45;&gt;project_callbacks</title>
<path fill="none" stroke="#999999" d="M862.06,-288.85C895.16,-278.78 938.03,-265.73 973.28,-255"/>
<polygon fill="#999999" stroke="#999999" points="974.46,-258.3 983,-252.04 972.42,-251.61 974.46,-258.3"/>
</g>
<!-- project_yaml&#45;&gt;project_trainer_config -->
<g id="edge7" class="edge">
<title>project_yaml&#45;&gt;project_trainer_config</title>
<path fill="none" stroke="#999999" d="M862.26,-295.91C921.47,-285.78 1020.21,-268.81 1115.96,-252"/>
<polygon fill="#999999" stroke="#999999" points="1116.57,-255.45 1125.81,-250.27 1115.35,-248.55 1116.57,-255.45"/>
</g>
<!-- training_script_causal_lm_causal_lm_yaml -->
<g id="node21" class="node">
<title>training_script_causal_lm_causal_lm_yaml</title>
<path fill="lightblue" stroke="black" d="M940.5,-252C940.5,-252 655.5,-252 655.5,-252 649.5,-252 643.5,-246 643.5,-240 643.5,-240 643.5,-228 643.5,-228 643.5,-222 649.5,-216 655.5,-216 655.5,-216 940.5,-216 940.5,-216 946.5,-216 952.5,-222 952.5,-228 952.5,-228 952.5,-240 952.5,-240 952.5,-246 946.5,-252 940.5,-252"/>
<text text-anchor="middle" x="798" y="-230.3" font-family="Times,serif" font-size="14.00">training_script/causal_lm/causal_lm.yaml</text>
</g>
<!-- project_yaml&#45;&gt;training_script_causal_lm_causal_lm_yaml -->
<g id="edge8" class="edge">
<title>project_yaml&#45;&gt;training_script_causal_lm_causal_lm_yaml</title>
<path fill="none" stroke="#999999" d="M806.28,-287.7C805.07,-279.98 803.61,-270.71 802.26,-262.11"/>
<polygon fill="#999999" stroke="#999999" points="805.7,-261.44 800.69,-252.1 798.78,-262.53 805.7,-261.44"/>
</g>
<!-- models_causal_lm_import_model_project_yaml -->
<g id="node23" class="node">
<title>models_causal_lm_import_model_project_yaml</title>
<path fill="none" stroke="black" d="M613.5,-252C613.5,-252 290.5,-252 290.5,-252 284.5,-252 278.5,-246 278.5,-240 278.5,-240 278.5,-228 278.5,-228 278.5,-222 284.5,-216 290.5,-216 290.5,-216 613.5,-216 613.5,-216 619.5,-216 625.5,-222 625.5,-228 625.5,-228 625.5,-240 625.5,-240 625.5,-246 619.5,-252 613.5,-252"/>
<text text-anchor="middle" x="452" y="-230.3" font-family="Times,serif" font-size="14.00">models_causal_lm_import_model_project_yaml</text>
</g>
<!-- project_yaml&#45;&gt;models_causal_lm_import_model_project_yaml -->
<g id="edge5" class="edge">
<title>project_yaml&#45;&gt;models_causal_lm_import_model_project_yaml</title>
<path fill="none" stroke="#999999" d="M755.94,-294.6C701.53,-283.93 615.68,-267.09 549.08,-254.03"/>
<polygon fill="#999999" stroke="#999999" points="549.46,-250.54 538.98,-252.05 548.12,-257.41 549.46,-250.54"/>
</g>
<!-- trainers_base_trainer_yaml -->
<g id="node19" class="node">
<title>trainers_base_trainer_yaml</title>
<path fill="lightgreen" stroke="black" d="M1301.5,-108C1301.5,-108 1120.5,-108 1120.5,-108 1114.5,-108 1108.5,-102 1108.5,-96 1108.5,-96 1108.5,-84 1108.5,-84 1108.5,-78 1114.5,-72 1120.5,-72 1120.5,-72 1301.5,-72 1301.5,-72 1307.5,-72 1313.5,-78 1313.5,-84 1313.5,-84 1313.5,-96 1313.5,-96 1313.5,-102 1307.5,-108 1301.5,-108"/>
<text text-anchor="middle" x="1211" y="-86.3" font-family="Times,serif" font-size="14.00">trainers/base_trainer.yaml</text>
</g>
<!-- trainers_base_trainer_yaml&#45;&gt;inc_formatting_jinja -->
<g id="edge30" class="edge">
<title>trainers_base_trainer_yaml&#45;&gt;inc_formatting_jinja</title>
<path fill="none" stroke="#999999" d="M1133.37,-71.97C1086.7,-61.72 1027.2,-48.67 978.95,-38.08"/>
<polygon fill="#999999" stroke="#999999" points="979.66,-34.65 969.15,-35.93 978.16,-41.49 979.66,-34.65"/>
</g>
<!-- trainers_trainer_yaml&#45;&gt;trainers_base_trainer_yaml -->
<g id="edge29" class="edge">
<title>trainers_trainer_yaml&#45;&gt;trainers_base_trainer_yaml</title>
<path fill="none" stroke="#999999" d="M1211,-143.7C1211,-135.98 1211,-126.71 1211,-118.11"/>
<polygon fill="#999999" stroke="#999999" points="1214.5,-118.1 1211,-108.1 1207.5,-118.1 1214.5,-118.1"/>
</g>
<!-- training_script_causal_lm_causal_lm_yaml&#45;&gt;callbacks_loggers_yaml -->
<g id="edge9" class="edge">
<title>training_script_causal_lm_causal_lm_yaml&#45;&gt;callbacks_loggers_yaml</title>
<path fill="none" stroke="#999999" d="M841.3,-215.88C865.71,-206.22 896.4,-194.09 922.21,-183.88"/>
<polygon fill="#999999" stroke="#999999" points="923.83,-187 931.84,-180.07 921.26,-180.49 923.83,-187"/>
</g>
<!-- training_script_causal_lm_causal_lm_yaml&#45;&gt;inc_formatting_jinja -->
<g id="edge10" class="edge">
<title>training_script_causal_lm_causal_lm_yaml&#45;&gt;inc_formatting_jinja</title>
<path fill="none" stroke="#999999" d="M802.82,-215.91C813.1,-179.97 837.34,-97.73 851,-72 856.16,-62.29 863.09,-52.53 869.79,-44.07"/>
<polygon fill="#999999" stroke="#999999" points="872.69,-46.05 876.34,-36.11 867.29,-41.61 872.69,-46.05"/>
</g>
<!-- training_script_causal_lm_causal_lm_yaml&#45;&gt;trainers_trainer_yaml -->
<g id="edge11" class="edge">
<title>training_script_causal_lm_causal_lm_yaml&#45;&gt;trainers_trainer_yaml</title>
<path fill="none" stroke="#999999" d="M898.5,-215.97C965.61,-204.59 1053.22,-189.74 1118.59,-178.66"/>
<polygon fill="#999999" stroke="#999999" points="1119.2,-182.11 1128.47,-176.99 1118.03,-175.21 1119.2,-182.11"/>
</g>
<!-- training_script_training_script_type_yaml -->
<g id="node22" class="node">
<title>training_script_training_script_type_yaml</title>
<path fill="lightblue" stroke="black" d="M792,-180C792,-180 508,-180 508,-180 502,-180 496,-174 496,-168 496,-168 496,-156 496,-156 496,-150 502,-144 508,-144 508,-144 792,-144 792,-144 798,-144 804,-150 804,-156 804,-156 804,-168 804,-168 804,-174 798,-180 792,-180"/>
<text text-anchor="middle" x="650" y="-158.3" font-family="Times,serif" font-size="14.00">training_script/training_script_type.yaml</text>
</g>
<!-- training_script_causal_lm_causal_lm_yaml&#45;&gt;training_script_training_script_type_yaml -->
<g id="edge12" class="edge">
<title>training_script_causal_lm_causal_lm_yaml&#45;&gt;training_script_training_script_type_yaml</title>
<path fill="none" stroke="#999999" d="M761.8,-215.88C741.74,-206.39 716.63,-194.51 695.29,-184.42"/>
<polygon fill="#999999" stroke="#999999" points="696.62,-181.18 686.09,-180.07 693.63,-187.51 696.62,-181.18"/>
</g>
<!-- training_script_training_script_type_yaml&#45;&gt;config_type_yaml -->
<g id="edge13" class="edge">
<title>training_script_training_script_type_yaml&#45;&gt;config_type_yaml</title>
<path fill="none" stroke="#999999" d="M652.97,-143.7C654.29,-135.98 655.88,-126.71 657.35,-118.11"/>
<polygon fill="#999999" stroke="#999999" points="660.83,-118.55 659.07,-108.1 653.93,-117.37 660.83,-118.55"/>
</g>
<!-- training_script_training_script_type_yaml&#45;&gt;inc_formatting_jinja -->
<g id="edge14" class="edge">
<title>training_script_training_script_type_yaml&#45;&gt;inc_formatting_jinja</title>
<path fill="none" stroke="#999999" d="M679.19,-143.87C722.89,-118.23 805.34,-69.85 853.78,-41.43"/>
<polygon fill="#999999" stroke="#999999" points="855.85,-44.27 862.71,-36.19 852.31,-38.23 855.85,-44.27"/>
</g>
</g>
</svg>
